<svg xmlns="http://www.w3.org/2000/svg" width="267" height="72" viewBox="0 0 267 72">
  <g fill="#FFF" fill-rule="evenodd">
    <path d="M63.41802 35.98842C62.26902 44.45382 60.51822 51.58662 60.04182 53.33142 59.39622 55.69122 58.21302 57.28842 57.09762 58.10322 55.11042 59.54742 52.59582 60.62862 50.28102 57.91542 48.99402 56.40702 48.55662 54.15822 48.68862 50.89062 49.03062 42.42402 53.31582 36.23862 57.07542 34.30422 59.74482 32.92902 63.71262 33.81762 63.41802 35.98842M78.97542 54.96822C78.58722 59.00142 74.96802 64.26282 71.40042 60.22962 69.54282 58.12962 70.52382 51.00522 72.17562 43.53762 74.65722 32.32002 75.47022 27.85422 69.24822 27.56922 67.72902 27.49902 65.86722 28.21182 65.10462 28.90242 63.86622 30.02442 63.52962 30.05442 61.96662 29.06742 57.29922 26.11962 52.73382 27.00282 47.28462 31.90122 41.47542 37.12602 37.45362 47.05902 37.35762 55.82982 37.27962 63.06822 41.19762 66.62502 41.19762 66.62502 44.45982 69.96342 48.65022 70.98822 52.71702 69.43482 54.44862 68.77482 56.63622 67.40322 57.58722 66.39102L59.32062 64.54002 61.70862 67.30362C63.49242 69.14442 65.79102 70.26342 67.91502 70.34922 72.02982 70.51482 74.34882 69.29862 77.23422 65.97102 77.88882 65.21622 79.49502 62.92902 79.80102 62.49042 79.80102 62.49042 78.99882 54.72462 78.97542 54.96822M218.79402 36.23388C220.02162 34.99428 221.57682 34.44468 222.81762 35.04108 223.61742 35.42628 224.33082 36.25668 224.50002 37.84668 224.76882 40.34808 222.23682 44.40408 219.49542 46.63908 218.19162 47.70288 217.12362 48.47328 216.22182 48.4631801 213.76002 48.43368 215.68842 39.36828 218.79402 36.23388M187.12062 36.19968C188.34942 34.96188 189.90342 34.41228 191.14362 35.00868 191.94522 35.39208 192.65622 36.22248 192.82542 37.81428 193.09542 40.31568 190.56342 44.37108 187.82262 46.60728 186.51822 47.66988 185.45082 48.44088 184.54902 48.4313687 182.08722 48.40248 184.01682 39.33528 187.12062 36.19968M266.75682 54.20088C266.11962 50.41488 263.79882 47.61048 256.93242 44.43408 252.44382 42.35868 246.23922 38.17968 246.73482 34.20348 246.93042 32.64708 248.05962 31.68528 249.70782 31.31448 249.85542 31.27788 249.98922 31.25148 250.08882 31.24548 251.95602 31.13568 253.36782 32.68548 253.48182 35.19948 253.55562 36.82608 253.75662 37.09848 255.09642 37.41888 258.27702 38.18388 260.38722 36.63708 260.27802 33.62268 260.17962 30.89448 258.61122 28.43568 255.25962 27.59148 253.35102 27.11088 251.33622 27.09648 249.46602 27.44268 249.19782 27.47388 248.91162 27.52968 248.59782 27.62988 244.82442 28.61808 241.35762 30.80088 239.84742 33.78708 236.73342 39.94848 238.88142 45.13728 247.01922 49.86468 256.28142 55.24548 257.18502 58.69008 253.33362 61.06548 250.53282 62.79228 246.80982 61.30128 243.97962 57.18408 241.22622 53.18208 239.40642 52.15788 236.42622 52.76388 234.88122 53.08068 233.39082 54.49488 233.05062 56.05728 232.26282 59.66088 229.61682 61.39848 224.75982 61.39848 224.33862 61.39848 223.92822 61.37028 223.52322 61.32528 223.11522 61.30308 222.73362 61.24608 222.37002 61.14888 218.81442 60.40668 216.28062 59.06508 215.99022 55.22508 215.90682 52.82928 216.47442 52.72968 219.40422 51.87588 224.62002 50.35608 229.80822 46.52388 231.86742 42.63768 234.14382 38.34768 233.88282 33.06288 231.25842 30.26988 229.18542 28.06308 224.66742 26.69508 221.76522 27.39408 212.31102 29.66688 203.05902 41.39688 203.80602 55.44828 203.82462 55.78908 203.89242 56.67348 204.06762 57.40608 204.20382 57.97008 198.00762 61.86468 193.79922 61.77408 189.12642 61.66788 185.31522 59.07348 185.03502 55.66908 184.85382 53.07888 185.91042 52.69488 188.72442 51.87588 197.45142 49.33368 203.26422 42.58188 202.63602 35.69448 202.24362 31.38648 200.05842 28.74588 195.99642 27.65028 190.79142 26.24868 185.80482 28.46208 179.30022 35.08668 174.12342 40.35948 170.26782 42.13968 168.68322 39.97488 168.13422 39.22428 167.73702 38.28408 167.67822 36.86208 167.54202 33.46488 165.93042 30.55548 164.00742 28.84368 161.80302 26.87928 157.63062 26.92188 155.61222 28.93668 151.74582 32.80368 153.73122 42.58008 159.02562 45.70248 160.49022 46.56648 162.56442 47.84628 162.41682 48.50928 161.53242 52.51668 160.36782 54.68688 159.82422 55.74048 158.15922 58.96128 155.72802 60.64368 152.20782 59.83548 151.09542 59.58108 148.66902 58.08468 147.63702 55.67148 145.58022 50.85528 151.73382 24.72708 151.73382 24.72708 153.67722 15.90408 155.58762 8.02068 156.00222 4.83108 156.72642-.73392 151.81542-.61992 144.39342 4.06188L144.07062 4.34808C143.31822 8.56008 140.26062 24.72708 140.26062 24.72708 137.93442 36.68868 135.84822 50.47068 135.66762 53.72568 135.37182 59.06628 136.32222 62.50308 139.26702 65.76588 145.70682 72.90288 156.85002 70.37148 160.82742 66.04608 164.12802 62.45568 165.83082 58.96128 166.64982 51.38388 167.04762 47.71188 170.06802 46.80888 173.19642 46.26408 174.48042 46.04088 173.12742 46.58388 173.24382 52.36608 173.37582 58.99668 174.43122 62.88468 177.68562 66.46848 183.25482 72.58608 195.29742 71.21268 203.12922 64.33728L205.93422 61.86048C205.93422 61.86048 207.74802 65.73228 212.45802 68.36028 217.61742 71.24208 224.90682 70.32888 230.88462 66.53628L234.34542 64.31568 236.75382 66.09288C240.51822 68.86128 243.92142 69.88308 249.26502 69.88308 260.76882 69.88308 268.15962 62.52468 266.75682 54.20088M90.79068 23.3524001C85.67808 23.36796 82.78128 18.83016 84.90408 14.12796 86.60988 10.34976 91.01208 8.47896 94.91808 9.87276 98.02968 10.98336 99.56808 14.71176 98.31528 18.10596 97.14228 21.28176 94.18788 23.34216 90.79068 23.3524001"/>
    <path d="M135.91548 32.78622C134.80848 26.64042 129.21828 24.11742 123.89748 27.38082 121.04088 29.13162 118.94448 31.64742 117.03468 34.33782 117.16728 33.61962 117.36888 32.30562 117.43368 31.80282 117.94068 27.90642 115.72908 26.74962 111.83808 27.96222 110.08068 28.51002 107.98068 29.54022 105.63288 31.02162L105.30528 31.31202C104.89548 33.60462 103.71948 40.06122 102.80328 44.93142 102.15948 48.35442 101.67768 51.34662 101.40768 52.33602 100.99308 53.85522 100.56588 55.19682 99.77508 56.77602 98.81568 58.68822 97.57788 59.91102 95.66208 60.49122 93.00228 61.29582 91.14228 59.94282 90.78168 57.18642 90.46008 54.73062 90.77148 53.20182 90.96888 51.95622 90.96948 51.95442 90.96228 51.95742 90.96288 51.95622 92.45508 45.40242 94.86588 35.07162 95.27928 31.88082 96.01608 26.22342 91.02528 26.33922 83.47908 31.09902L83.15208 31.39002C82.45188 35.30742 79.71888 49.66242 79.27188 52.02942 79.27188 52.02942 77.74368 58.89702 78.47568 62.44782 79.26348 66.27582 81.28728 69.05982 85.25448 69.99462 87.49668 70.52262 89.83128 70.52862 91.96668 69.66582 94.39488 68.68482 96.68808 67.36782 99.14988 66.14262 99.85308 67.95582 101.07828 69.56382 103.27968 70.08222 107.28768 71.02302 111.21288 68.87682 112.39488 64.91802 112.90008 63.22962 112.96308 61.39002 113.08368 59.61102 113.31108 56.26602 113.12808 52.86102 113.69628 49.58382 113.80608 49.09122 113.91588 48.60462 114.02508 48.12162 114.60708 45.93702 115.36668 42.81282 116.32008 40.74882 116.75448 39.80802 118.22688 37.91262 119.13528 37.31862 123.06108 34.75182 121.76328 39.88242 121.51128 41.58222 121.22688 43.50642 121.73748 44.38662 123.55668 44.96202 125.76468 45.66102 127.95108 45.57642 130.06668 44.60082 134.25048 42.67122 136.77528 37.55562 135.91548 32.78622M34.91862 4.5792L34.59162 4.869C33.82902 9.1398 30.53802 26.3328 30.53802 26.3328 30.48402 26.6118 30.43122 26.8926 30.37722 27.1734L30.39522 27.1734C28.83702 34.3902 25.94802 46.1166 23.23002 51.3888 22.35702 53.079 21.02262 54.5838 19.69602 55.9728 18.20022 57.5388 16.76442 57.054 16.14582 55.3476 15.64722 53.9736 15.30642 52.5042 15.15042 51.0498 14.14542 41.6952 14.92662 32.3928 16.03482 23.0988 16.47462 19.4136 17.08002 15.7272 16.43862 11.9898 15.74382 7.938 13.31082 5.2632 9.81342 4.8102 5.91522 4.3056 2.68182 6.1392 1.19262 10.1424.44322 12.1572-.02658 14.4162.00162 16.5558.10962 24.966.32742 33.3804.77682 41.7786 1.12662 48.3192 1.83942 54.8604 3.78102 61.1526 4.56822 63.7032 5.73522 66.1914 7.08882 68.4966 8.45562 70.8246 10.71642 71.7276 13.50282 71.3562 15.42702 71.1012 17.13102 70.4478 18.70482 69.5508L18.70482 69.651C19.76862 69.0666 20.77302 68.364 21.73002 67.5732 25.97922 64.0572 28.98102 59.5596 31.57722 54.783 35.04102 48.4104 39.49242 37.2252 41.61822 28.6584 43.00542 23.0724 46.14462 11.8794 46.68822 5.3586 47.16102-.3114 42.44382-.1686 34.91862 4.5792"/>
  </g>
</svg>
